<?xml version="1.0" encoding="UTF-8"?>
<svg version="1.1" xmlns="http://www.w3.org/2000/svg" width="180" height="180">
<path d="M0 0 C2.47601737 2.44240627 4.64822503 4.91035902 6.7265625 7.703125 C6.7265625 8.363125 6.7265625 9.023125 6.7265625 9.703125 C7.7165625 10.033125 8.7065625 10.363125 9.7265625 10.703125 C24.50828926 29.98363816 31.04789084 55.73576683 28.265625 79.66796875 C25.80919756 95.47708419 19.84276149 108.66696045 10.7265625 121.703125 C10.0665625 122.693125 9.4065625 123.683125 8.7265625 124.703125 C8.0665625 124.703125 7.4065625 124.703125 6.7265625 124.703125 C6.4996875 125.26 6.2728125 125.816875 6.0390625 126.390625 C4.35106214 129.36472088 2.25979733 131.42321365 -0.2734375 133.703125 C-0.9334375 133.703125 -1.5934375 133.703125 -2.2734375 133.703125 C-2.2734375 134.363125 -2.2734375 135.023125 -2.2734375 135.703125 C-18.78447349 150.13403047 -37.16320109 154.41038016 -58.41430664 154.22460938 C-61.33498898 154.20313198 -64.25321933 154.22452459 -67.17382812 154.25 C-90.54164782 154.28500295 -108.64851807 145.89947684 -125.5234375 129.828125 C-133.90586637 121.00451567 -140.75957204 111.03899307 -145.2734375 99.703125 C-145.62647949 98.85153809 -145.97952148 97.99995117 -146.34326172 97.12255859 C-149.84352117 87.50579417 -149.88535419 78.19857823 -149.79492188 68.06494141 C-149.77347256 65.20779564 -149.79481608 62.35316353 -149.8203125 59.49609375 C-149.84868331 41.23124498 -145.32244471 24.07483239 -133.2734375 9.703125 C-132.6134375 9.703125 -131.9534375 9.703125 -131.2734375 9.703125 C-131.0259375 9.14625 -130.7784375 8.589375 -130.5234375 8.015625 C-127.71930776 2.82798499 -123.90700183 -0.77133692 -119.2734375 -4.296875 C-118.6134375 -4.296875 -117.9534375 -4.296875 -117.2734375 -4.296875 C-117.2734375 -4.956875 -117.2734375 -5.616875 -117.2734375 -6.296875 C-81.89882626 -32.00281181 -32.52873441 -29.71760922 0 0 Z " fill="#5F6467" transform="translate(149.2734375,26.296875)"/>
<path d="M0 0 C2.47601737 2.44240627 4.64822503 4.91035902 6.7265625 7.703125 C6.7265625 8.363125 6.7265625 9.023125 6.7265625 9.703125 C7.7165625 10.033125 8.7065625 10.363125 9.7265625 10.703125 C24.50828926 29.98363816 31.04789084 55.73576683 28.265625 79.66796875 C25.80919756 95.47708419 19.84276149 108.66696045 10.7265625 121.703125 C10.0665625 122.693125 9.4065625 123.683125 8.7265625 124.703125 C8.0665625 124.703125 7.4065625 124.703125 6.7265625 124.703125 C6.4996875 125.26 6.2728125 125.816875 6.0390625 126.390625 C4.35106214 129.36472088 2.25979733 131.42321365 -0.2734375 133.703125 C-0.9334375 133.703125 -1.5934375 133.703125 -2.2734375 133.703125 C-2.2734375 134.363125 -2.2734375 135.023125 -2.2734375 135.703125 C-18.78447349 150.13403047 -37.16320109 154.41038016 -58.41430664 154.22460938 C-61.33498898 154.20313198 -64.25321933 154.22452459 -67.17382812 154.25 C-90.54164782 154.28500295 -108.64851807 145.89947684 -125.5234375 129.828125 C-133.90586637 121.00451567 -140.75957204 111.03899307 -145.2734375 99.703125 C-145.62647949 98.85153809 -145.97952148 97.99995117 -146.34326172 97.12255859 C-149.84352117 87.50579417 -149.88535419 78.19857823 -149.79492188 68.06494141 C-149.77347256 65.20779564 -149.79481608 62.35316353 -149.8203125 59.49609375 C-149.84868331 41.23124498 -145.32244471 24.07483239 -133.2734375 9.703125 C-132.6134375 9.703125 -131.9534375 9.703125 -131.2734375 9.703125 C-131.0259375 9.14625 -130.7784375 8.589375 -130.5234375 8.015625 C-127.71930776 2.82798499 -123.90700183 -0.77133692 -119.2734375 -4.296875 C-118.6134375 -4.296875 -117.9534375 -4.296875 -117.2734375 -4.296875 C-117.2734375 -4.956875 -117.2734375 -5.616875 -117.2734375 -6.296875 C-81.89882626 -32.00281181 -32.52873441 -29.71760922 0 0 Z M-119.61328125 17.203125 C-134.12896873 34.14273726 -136.49880872 53.12984638 -135.2734375 74.703125 C-133.6640996 93.95467834 -122.5398079 111.28572594 -108.02734375 123.640625 C-98.8243117 130.53310858 -89.43855722 134.88798798 -78.2734375 137.703125 C-77.66975342 137.8781958 -77.06606934 138.0532666 -76.4440918 138.23364258 C-71.79579332 139.23900508 -66.94675303 138.93111075 -62.2109375 138.953125 C-61.12876953 138.97375 -60.04660156 138.994375 -58.93164062 139.015625 C-51.56440731 139.05098065 -45.25658585 138.0239761 -38.2734375 135.703125 C-37.108125 135.32671875 -35.9428125 134.9503125 -34.7421875 134.5625 C-27.2676766 131.76939329 -20.76331042 128.34773518 -14.2734375 123.703125 C-13.65082031 123.26613281 -13.02820313 122.82914063 -12.38671875 122.37890625 C-1.34810204 113.8104695 4.9532763 101.49120535 9.7265625 88.703125 C10.0875 87.80464844 10.4484375 86.90617187 10.8203125 85.98046875 C15.59675928 72.02705245 13.5695928 55.298429 8.7265625 41.703125 C8.35273438 40.64738281 7.97890625 39.59164062 7.59375 38.50390625 C0.55243641 20.29441648 -12.3095023 5.84914997 -30.24560547 -2.1796875 C-63.79972868 -16.33794904 -95.01858704 -9.07501239 -119.61328125 17.203125 Z " fill="#F7F7F7" transform="translate(149.2734375,26.296875)"/>
<path d="M0 0 C6.75510212 3.8876302 12.0776463 8.93523533 14.4375 16.5 C15.36186495 27.87784499 14.35425785 37.23114582 7.4375 46.5 C4.9375 49.25 4.9375 49.25 2.4375 51.5 C1.756875 52.180625 1.07625 52.86125 0.375 53.5625 C-7.30782771 58.629897 -16.4488406 60.7981277 -25.5625 59.5 C-33.70031958 57.45647621 -40.39172934 53.1693936 -45.1328125 46.1875 C-49.66583248 38.31299672 -51.27721381 30.02830799 -48.9140625 21.03125 C-44.81747434 11.08739499 -38.27357231 4.07786253 -28.5625 -0.5 C-19.4646789 -4.12657972 -8.89291753 -4.12685202 0 0 Z " fill="#FAFAFA" transform="translate(85.5625,35.5)"/>
<path d="M0 0 C3 1 3 1 3.94921875 2.765625 C8.50722115 18.10366483 7.19098265 34.39345205 1 49 C0.74299316 49.61456055 0.48598633 50.22912109 0.22119141 50.86230469 C-7.76322917 69.41909799 -20.73101173 81.06396761 -39 89 C-48.94128728 92.78388097 -57.46846292 94.20017502 -68.0625 94.25 C-69.66641602 94.2809375 -69.66641602 94.2809375 -71.30273438 94.3125 C-81.94499392 94.36394295 -91.60098287 92.28853927 -101.0625 87.375 C-101.73659912 87.03017578 -102.41069824 86.68535156 -103.10522461 86.33007812 C-112.97245734 81.09636916 -123.50143735 73.30134815 -128.4375 63 C-128.623125 62.34 -128.80875 61.68 -129 61 C-125.51698805 62.68668859 -122.16699577 64.57147137 -118.8125 66.5 C-117.74644531 67.1084375 -116.68039063 67.716875 -115.58203125 68.34375 C-113 70 -113 70 -112 72 C-109.55562735 72.65640065 -109.55562735 72.65640065 -106.6875 73.0625 C-101.17639303 73.95281234 -101.17639303 73.95281234 -99.07983398 74.51367188 C-96.99150648 75.00198604 -95.10127884 75.17061508 -92.9609375 75.24609375 C-91.84332031 75.29540039 -91.84332031 75.29540039 -90.703125 75.34570312 C-89.1433894 75.40720277 -87.58348081 75.46445373 -86.0234375 75.51757812 C-80.21520274 75.78479726 -80.21520274 75.78479726 -78 78 C-74.98261841 78.2021497 -72.07887157 78.28219609 -69.0625 78.25 C-68.20744873 78.24613281 -67.35239746 78.24226563 -66.47143555 78.23828125 C-60.16063021 78.15231436 -54.13678241 77.54453849 -48 76 C-48.66 74.02 -49.32 72.04 -50 70 C-47.80087504 68.79198752 -45.59338181 67.60918053 -43.375 66.4375 C-42.75753906 66.09525391 -42.14007813 65.75300781 -41.50390625 65.40039062 C-37.2438032 63.18065272 -34.63091792 62.69621849 -30 64 C-31 66 -31 66 -33.94140625 67.0703125 C-35.13636719 67.41835937 -36.33132812 67.76640625 -37.5625 68.125 C-38.76003906 68.47820312 -39.95757812 68.83140625 -41.19140625 69.1953125 C-42.58166016 69.59363281 -42.58166016 69.59363281 -44 70 C-44 71.65 -44 73.3 -44 75 C-37.09769675 74.03454213 -30.464316 72.5825741 -25 68 C-23.78717711 64.84050318 -23.78717711 64.84050318 -24 62 C-25.65 61.01 -27.3 60.02 -29 59 C-28.01 58.01 -28.01 58.01 -27 57 C-26.54367188 56.53851563 -26.08734375 56.07703125 -25.6171875 55.6015625 C-24.47597249 54.47137373 -23.31206632 53.36387722 -22.1328125 52.2734375 C-16.65903446 47.09784192 -12.76738617 41.50379966 -9 35 C-8.60941406 34.36707031 -8.21882813 33.73414063 -7.81640625 33.08203125 C-2.3509121 23.44830032 -0.46276704 10.92130212 0 0 Z " fill="#444142" transform="translate(156,71)"/>
<path d="M0 0 C3.65596743 1.42176511 6.57153264 2.89463226 9 6 C9.3984375 8.59375 9.3984375 8.59375 9.375 11.5 C9.38273437 12.4590625 9.39046875 13.418125 9.3984375 14.40625 C9 17 9 17 7.4453125 18.51171875 C5.70671461 19.95179637 5.70671461 19.95179637 6.03125 22.48828125 C6.1859375 23.42027344 6.340625 24.35226563 6.5 25.3125 C7.08913715 30.16007414 6.88963978 32.87194317 4 37 C1.59398029 39.90727382 -0.46038898 40.83835409 -4.26953125 41.23828125 C-10.05034894 41.40699943 -13.51856577 41.04422113 -18 37 C-21.39857051 33.14828676 -21.50331498 29.32430798 -21.36328125 24.37890625 C-20.8499559 21.01745315 -19.48109559 19.26217539 -17 17 C-16.34 16.67 -15.68 16.34 -15 16 C-15.06960937 15.43152344 -15.13921875 14.86304688 -15.2109375 14.27734375 C-15.52807829 9.75431198 -15.32391539 6.649816 -12.5625 2.9375 C-8.78948237 -0.90687494 -5.11179599 -1.01686264 0 0 Z " fill="#39393A" transform="translate(73,41)"/>
<path d="M0 0 C2.125 0.375 2.125 0.375 4 1 C3.88416889 2.54238266 3.75683428 4.08390272 3.625 5.625 C3.55539063 6.48351562 3.48578125 7.34203125 3.4140625 8.2265625 C3 11 3 11 1 17 C5.95 16.34 10.9 15.68 16 15 C16.433125 13.246875 16.86625 11.49375 17.3125 9.6875 C18.96556327 2.99652963 18.96556327 2.99652963 22 1 C24.1875 1.3125 24.1875 1.3125 26 2 C25.91621094 2.96421875 25.83242187 3.9284375 25.74609375 4.921875 C25.64425781 6.18515625 25.54242188 7.4484375 25.4375 8.75 C25.33308594 10.00296875 25.22867188 11.2559375 25.12109375 12.546875 C25.02123277 15.39452364 25.09415705 17.34286067 26 20 C25.01 20.66 24.02 21.32 23 22 C22.24270881 23.77899661 22.24270881 23.77899661 21.8671875 25.84375 C21.70089844 26.59527344 21.53460938 27.34679687 21.36328125 28.12109375 C21.20214844 28.90613281 21.04101562 29.69117188 20.875 30.5 C19.08177233 38.83645533 19.08177233 38.83645533 18 41 C16.35 40.67 14.7 40.34 13 40 C12.97264382 38.29175867 12.95344494 36.58338595 12.9375 34.875 C12.92589844 33.92367187 12.91429688 32.97234375 12.90234375 31.9921875 C13 29 13 29 14 23 C9.05 23.66 4.1 24.32 -1 25 C-1.5775 27.124375 -2.155 29.24875 -2.75 31.4375 C-3.734375 35.05859375 -3.734375 35.05859375 -5 38 C-7.078125 38.97265625 -7.078125 38.97265625 -9 39 C-10.54785639 37.45214361 -10.24476017 36.03554401 -10.3125 33.875 C-10.21634189 24.27292553 -6.99262485 6.99262485 0 0 Z " fill="#F8C444" transform="translate(53,105)"/>
<path d="M0 0 C6.18211934 9.27317902 3.55980861 25.46808879 1.47607422 35.94287109 C-1.5147129 49.48512892 -7.09125652 60.69049683 -15 72 C-15.66 72.99 -16.32 73.98 -17 75 C-17.66 75 -18.32 75 -19 75 C-19.3403125 75.8353125 -19.3403125 75.8353125 -19.6875 76.6875 C-21.37550036 79.66159588 -23.46676517 81.72008865 -26 84 C-26.66 84 -27.32 84 -28 84 C-28 84.66 -28 85.32 -28 86 C-44.51103599 100.43090547 -62.88976359 104.70725516 -84.14086914 104.52148438 C-87.06155148 104.50000698 -89.97978183 104.52139959 -92.90039062 104.546875 C-116.26821032 104.58187795 -134.37508057 96.19635184 -151.25 80.125 C-162.79876522 67.96840503 -175.14466462 50.17317232 -175.25 32.6875 C-175.1675 31.800625 -175.085 30.91375 -175 30 C-174.67 30 -174.34 30 -174 30 C-173.82984375 30.7734375 -173.6596875 31.546875 -173.484375 32.34375 C-172.16770061 38.00264844 -170.75227152 43.06464396 -167.94921875 48.16015625 C-167 50 -167 50 -165.8125 53.6875 C-158.69832041 73.26110764 -140.02474633 87.52019226 -121.92285156 96.15869141 C-101.78138701 104.97122148 -74.42067195 104.80044301 -54 97 C-36.60921033 89.55366741 -22.03893787 78.12164407 -12 62 C-11.47664062 61.15953125 -10.95328125 60.3190625 -10.4140625 59.453125 C-3.88678045 48.25403194 0.15325937 35.86269303 0.09765625 22.8515625 C0.0962413 22.19417084 0.09482635 21.53677917 0.09336853 20.85946655 C0.08781762 18.78126269 0.07527465 16.70317073 0.0625 14.625 C0.05747864 13.20703282 0.05291685 11.78906393 0.04882812 10.37109375 C0.03786437 6.91402678 0.02063421 3.45702433 0 0 Z " fill="#141414" transform="translate(175,76)"/>
<path d="M0 0 C0.33 1.65 0.66 3.3 1 5 C-1.7507745 6.75049286 -4.3262531 8.1268762 -7.375 9.3125 C-11.46357918 11.2158041 -15.14279423 13.44803294 -18 17 C-18 18.32 -18 19.64 -18 21 C-11.565 24.465 -11.565 24.465 -5 28 C-6 34 -6 34 -7.671875 35.609375 C-8.35765625 35.98578125 -9.0434375 36.3621875 -9.75 36.75 C-10.47574219 37.15089844 -11.20148438 37.55179688 -11.94921875 37.96484375 C-12.62597656 38.30644531 -13.30273438 38.64804688 -14 39 C-14.845625 39.433125 -15.69125 39.86625 -16.5625 40.3125 C-19.75818096 41.21384591 -22.69884796 41.12945694 -26 41 C-26.33 39.35 -26.66 37.7 -27 36 C-22.35855331 34.23945126 -17.72224516 32.53472968 -13 31 C-13.77085938 30.60167969 -14.54171875 30.20335937 -15.3359375 29.79296875 C-16.33882812 29.26316406 -17.34171875 28.73335937 -18.375 28.1875 C-19.37273437 27.66542969 -20.37046875 27.14335937 -21.3984375 26.60546875 C-24 25 -24 25 -26 22 C-26.08205407 17.07675585 -25.59836434 14.1182082 -22.25 10.4375 C-16.43791495 5.2042118 -8.09080628 -0.736895 0 0 Z " fill="#F6C344" transform="translate(138,105)"/>
<path d="M0 0 C0.33 0 0.66 0 1 0 C1.17015625 0.7734375 1.3403125 1.546875 1.515625 2.34375 C2.83229939 8.00264844 4.24772848 13.06464396 7.05078125 18.16015625 C8 20 8 20 9.1875 23.6875 C17.18130324 45.68126134 38.33648998 59.10068902 58.38671875 68.60546875 C61 70 61 70 62 72 C43.97552204 70.53855584 28.15464484 55.16673982 16.75 42.3125 C7.81275042 31.21996515 -1.35643415 14.58166709 0 0 Z " fill="#0A0A0A" transform="translate(0,106)"/>
<path d="M0 0 C1.01771484 0.00451172 2.03542969 0.00902344 3.08398438 0.01367188 C5.57688509 0.02537563 8.06966074 0.04177152 10.5625 0.0625 C10.8925 1.3825 11.2225 2.7025 11.5625 4.0625 C1.6814768 7.79286382 -8.05802767 7.35291011 -18.4375 7.0625 C-19.0975 5.7425 -19.7575 4.4225 -20.4375 3.0625 C-15.73007823 -1.64492177 -6.2268282 -0.05266673 0 0 Z " fill="#F6C243" transform="translate(96.4375,142.9375)"/>
<path d="M0 0 C2.3125 1.125 2.3125 1.125 4 3 C4.45947423 6.1506804 4.52225401 8.07837528 2.9375 10.875 C-0.06732099 12.61973477 -2.60810131 12.30835443 -6 12 C-8.32528287 9.67471713 -8.29511025 9.15334102 -8.3125 6 C-8.32925781 5.29875 -8.34601562 4.5975 -8.36328125 3.875 C-8.24339844 3.25625 -8.12351563 2.6375 -8 2 C-4.74236778 -0.17175481 -3.77560787 -0.46043998 0 0 Z " fill="#F3F3F3" transform="translate(68,62)"/>
<path d="M0 0 C0.33 0 0.66 0 1 0 C1.17015625 0.7734375 1.3403125 1.546875 1.515625 2.34375 C2.83147737 7.9991155 4.24922174 13.05663292 7.04296875 18.15234375 C8.00620152 20.01197273 8.65824152 21.82564144 9.3125 23.8125 C11.28661117 29.36884661 14.73427061 34.13272113 18 39 C14.44098738 38.39238667 14.02470989 38.02944983 11.515625 35.0390625 C8.65131012 30.74259018 6.6876524 26.14460591 4.75 21.375 C4.2240625 20.12589844 4.2240625 20.12589844 3.6875 18.8515625 C0.98786972 12.33091705 -0.13955694 7.11740409 0 0 Z " fill="#101010" transform="translate(0,106)"/>
<path d="M0 0 C6.72 0.72 6.72 0.72 8 2 C8.1875 4.4375 8.1875 4.4375 8 7 C6 9 6 9 3.5625 9.3125 C1 9 1 9 -0.875 7.8125 C-2 6 -2 6 -1.75 3.375 C-1 1 -1 1 0 0 Z " fill="#EDEDED" transform="translate(67,47)"/>
<path d="M0 0 C0 3 0 3 -1.2421875 4.60546875 C-1.78101563 5.12753906 -2.31984375 5.64960938 -2.875 6.1875 C-3.40867188 6.71730469 -3.94234375 7.24710938 -4.4921875 7.79296875 C-6 9 -6 9 -8 9 C-8 9.66 -8 10.32 -8 11 C-10.30078125 12.98046875 -10.30078125 12.98046875 -13.3125 15.1875 C-14.79169922 16.29158203 -14.79169922 16.29158203 -16.30078125 17.41796875 C-17.19152344 17.94003906 -18.08226562 18.46210938 -19 19 C-19.99 18.67 -20.98 18.34 -22 18 C-15.81458828 11.4022275 -8.60071977 5.87225626 -1 1 C-0.67 0.67 -0.34 0.34 0 0 Z " fill="#0F0F0F" transform="translate(155,151)"/>
<path d="M0 0 C-1.53218685 3.63061667 -3.7183144 5.9863773 -6.5 8.75 C-7.2940625 9.54921875 -8.088125 10.3484375 -8.90625 11.171875 C-11 13 -11 13 -13 13 C-13 13.66 -13 14.32 -13 15 C-14 16 -15 17 -16 18 C-17.17574711 20.09989652 -17.17574711 20.09989652 -18 22 C-18.66 22 -19.32 22 -20 22 C-18.87548273 19.0280615 -17.77706209 16.66559313 -16 14 C-15.34 14 -14.68 14 -14 14 C-13.7525 13.443125 -13.505 12.88625 -13.25 12.3125 C-10.87555623 7.91977902 -5.54070442 0 0 0 Z " fill="#C3C3C3" transform="translate(32,22)"/>
<path d="M0 0 C0.33 0 0.66 0 1 0 C1.18175781 0.76183594 1.36351563 1.52367188 1.55078125 2.30859375 C2.95532396 8.07802305 4.4676289 13.69277146 6.546875 19.2578125 C7 21 7 21 6 23 C1.87253559 15.29539976 -0.36584665 8.78031957 0 0 Z " fill="#0F0F0F" transform="translate(0,106)"/>
<path d="M0 0 C0.66 0.33 1.32 0.66 2 1 C-2.27171492 6.79732739 -2.27171492 6.79732739 -6 8 C-6.99 7.67 -7.98 7.34 -9 7 C-6.25604436 4.05278838 -3.61662784 1.80831392 0 0 Z " fill="#1B1B1B" transform="translate(134,166)"/>
<path d="M0 0 C-2.24903613 4.49807225 -3.39785562 6.58935294 -8 9 C-8.99 9 -9.98 9 -11 9 C-9.73965413 7.49117739 -8.46636351 5.99315956 -7.1875 4.5 C-6.47980469 3.6646875 -5.77210938 2.829375 -5.04296875 1.96875 C-3 0 -3 0 0 0 Z " fill="#262626" transform="translate(161,145)"/>
<path d="M0 0 C4.7517398 0.43197635 6.92000054 1.32769295 10 5 C6.28111761 4.49287967 3.26545761 3.88391785 0 2 C0 1.34 0 0.68 0 0 Z " fill="#010101" transform="translate(52,173)"/>
<path d="M0 0 C2 1 2 1 2.8515625 3.06640625 C3.10679688 3.89011719 3.36203125 4.71382812 3.625 5.5625 C3.88539062 6.38878906 4.14578125 7.21507812 4.4140625 8.06640625 C4.60742188 8.70449219 4.80078125 9.34257812 5 10 C3.046875 9.1875 3.046875 9.1875 1 8 C0.31450221 5.25800883 0 2.82008529 0 0 Z " fill="#2A2A2A" transform="translate(6,125)"/>
</svg>
